# xmcd
#
# Track frame offsets:
#	150
#	14107
#	35795
#	48117
#	60245
#	78922
#	98072
#	116745
#	131707
#	146645
#
# Disc length: 2159 seconds
#
# Revision: 0
# Processed by: cddbd v1.4PL0 Copyright (c) Steve Scherf et al.
# Submitted via: OrangeCD 4.1
#
DISCID=86086d0a
DTITLE=Don McMinn - Boogie Man
DYEAR=1900
DGENRE=
TTITLE0=The Boogie Man
TTITLE1=With What's Left Of My Old Friends
TTITLE2=Mr. Crump
TTITLE3=If You Got It, I Can Get It
TTITLE4=The Magic Of A Woman
TTITLE5=You Can't Judge A Book
TTITLE6=Ain't Love Strange
TTITLE7=The Blues Ain't Nothing
TTITLE8=I Can't Get A Handle On Love
TTITLE9=Hold On Tight
EXTD=
EXTT0=
EXTT1=
EXTT2=
EXTT3=
EXTT4=
EXTT5=
EXTT6=
EXTT7=
EXTT8=
EXTT9=
PLAYORDER=
